<svg data-v-423bf9ae="" xmlns="http://www.w3.org/2000/svg" viewBox="0 0 104.85086104332338 60"
    class="font"><!----><!----><!---->
    <g data-v-423bf9ae="" id="90a56bb1-034d-4e09-824c-2e1139173f56" fill="rgb(239, 68, 68)"
        transform="matrix(5.681818469168412,0,0,5.681818469168412,-2.2381012598771122e-7,-29.88636740196521)">
        <path
            d="M0.30 7.97L0.30 7.82L0.30 7.82Q0.29 7.71 0.25 7.62L0.25 7.62L0.25 7.62Q0.22 7.53 0.18 7.42L0.18 7.42L0.18 7.42Q0.11 7.26 0.05 7.07L0.05 7.07L0.05 7.07Q0 6.88 0 6.62L0 6.62L0 6.62Q0.03 6.48 0.07 6.42L0.07 6.42L0.07 6.42Q0.11 6.36 0.15 6.32L0.15 6.32L0.21 6.07L0.41 6.07L0.41 6.07Q0.52 6.08 0.64 6.08L0.64 6.08L0.64 6.08Q0.75 6.08 0.86 6.08L0.86 6.08L0.86 6.08Q1.38 6.08 1.93 6.04L1.93 6.04L1.93 6.04Q2.47 6.00 3.05 5.95L3.05 5.95L3.05 5.95Q3.68 5.87 4.40 5.82L4.40 5.82L4.40 5.82Q4.47 5.67 4.49 5.63L4.49 5.63L4.49 5.63Q4.51 5.59 4.54 5.54L4.54 5.54L4.69 5.46L4.69 5.46Q5.00 5.44 5.13 5.53L5.13 5.53L5.13 5.53Q5.25 5.62 5.32 5.70L5.32 5.70L5.32 5.70Q5.67 5.67 6.04 5.63L6.04 5.63L6.04 5.63Q6.41 5.58 6.81 5.52L6.81 5.52L6.81 5.52Q7.36 5.46 7.92 5.39L7.92 5.39L7.92 5.39Q8.48 5.32 9.01 5.32L9.01 5.32L9.01 5.32Q9.24 5.32 9.45 5.33L9.45 5.33L9.45 5.33Q9.65 5.35 9.84 5.37L9.84 5.37L10.01 5.50L10.01 5.50Q10.06 5.59 10.14 5.67L10.14 5.67L10.14 5.67Q10.23 5.76 10.34 5.84L10.34 5.84L10.34 5.84Q10.54 6.00 10.74 6.25L10.74 6.25L10.74 6.25Q10.94 6.49 10.88 6.97L10.88 6.97L10.81 7.11L10.81 7.11Q10.76 7.16 10.68 7.22L10.68 7.22L10.54 7.40L10.39 7.40L10.39 7.40Q10.25 7.40 10.19 7.42L10.19 7.42L10.19 7.42Q10.12 7.44 10.02 7.48L10.02 7.48L10.02 7.48Q9.97 7.51 9.90 7.53L9.90 7.53L9.90 7.53Q9.83 7.55 9.75 7.57L9.75 7.57L9.75 7.57Q9.60 7.56 9.52 7.56L9.52 7.56L9.52 7.56Q9.43 7.56 9.32 7.56L9.32 7.56L9.32 7.56Q8.91 7.56 8.44 7.62L8.44 7.62L8.44 7.62Q7.96 7.67 7.51 7.74L7.51 7.74L7.51 7.74Q7.18 7.78 6.88 7.81L6.88 7.81L6.88 7.81Q6.58 7.85 6.33 7.88L6.33 7.88L6.33 7.88Q6.19 8.23 6.08 8.50L6.08 8.50L6.08 8.50Q5.97 8.78 5.85 9.05L5.85 9.05L5.85 9.05Q5.73 9.32 5.62 9.60L5.62 9.60L5.62 9.60Q5.51 9.88 5.41 10.23L5.41 10.23L5.41 10.23Q5.25 10.47 5.14 10.70L5.14 10.70L5.14 10.70Q5.03 10.92 4.96 11.21L4.96 11.21L4.96 11.21Q4.76 11.44 4.67 11.72L4.67 11.72L4.67 11.72Q4.58 11.99 4.51 12.18L4.51 12.18L4.46 12.39L4.46 12.39Q4.36 12.48 4.34 12.54L4.34 12.54L4.34 12.54Q4.32 12.59 4.27 12.66L4.27 12.66L4.27 12.66Q4.22 12.84 4.16 13.00L4.16 13.00L4.16 13.00Q4.13 13.07 4.10 13.15L4.10 13.15L4.10 13.15Q4.07 13.22 4.09 13.26L4.09 13.26L4.09 13.26Q4.06 13.41 4.01 13.49L4.01 13.49L4.01 13.49Q4.01 13.58 3.99 13.66L3.99 13.66L3.99 13.66Q3.98 13.74 3.96 13.82L3.96 13.82L3.96 13.82Q3.94 13.92 3.92 13.99L3.92 13.99L3.92 13.99Q3.91 14.07 3.94 14.14L3.94 14.14L3.94 14.14Q3.98 14.19 4.02 14.25L4.02 14.25L4.02 14.25Q4.06 14.30 4.09 14.38L4.09 14.38L4.09 14.38Q4.12 14.41 4.16 14.42L4.16 14.42L4.16 14.42Q4.20 14.44 4.22 14.46L4.22 14.46L4.22 14.46Q4.33 14.56 4.43 14.57L4.43 14.57L4.57 14.74L4.57 14.74Q4.65 15.23 4.42 15.50L4.42 15.50L4.42 15.50Q4.17 15.82 3.60 15.82L3.60 15.82L3.40 15.80L3.40 15.80Q3.31 15.71 3.29 15.68L3.29 15.68L3.29 15.68Q3.17 15.63 3.09 15.59L3.09 15.59L3.09 15.59Q3.01 15.56 2.94 15.46L2.94 15.46L2.94 15.46Q2.91 15.44 2.87 15.43L2.87 15.43L2.87 15.43Q2.83 15.42 2.80 15.39L2.80 15.39L2.80 15.39Q2.67 15.35 2.58 15.30L2.58 15.30L2.43 15.22L2.43 15.22Q2.45 15.08 2.45 15.03L2.45 15.03L2.45 15.03Q2.34 14.88 2.28 14.70L2.28 14.70L2.28 14.70Q2.21 14.52 2.17 14.33L2.17 14.33L2.17 14.33Q2.13 14.18 2.10 14.05L2.10 14.05L2.10 14.05Q2.06 13.93 2.00 13.84L2.00 13.84L2.00 13.84Q1.97 12.88 2.17 12.23L2.17 12.23L2.17 12.23Q2.38 11.58 2.63 10.96L2.63 10.96L2.63 10.96Q2.76 10.64 2.88 10.29L2.88 10.29L2.88 10.29Q3.01 9.95 3.10 9.60L3.10 9.60L3.25 9.45L3.25 9.45Q3.35 9.37 3.38 9.35L3.38 9.35L3.38 9.35Q3.38 9.17 3.45 9.00L3.45 9.00L3.45 9.00Q3.51 8.83 3.60 8.65L3.60 8.65L3.60 8.65Q3.65 8.54 3.70 8.44L3.70 8.44L3.70 8.44Q3.75 8.33 3.76 8.24L3.76 8.24L3.76 8.24Q3.66 8.24 3.59 8.25L3.59 8.25L3.59 8.25Q3.51 8.26 3.43 8.27L3.43 8.27L3.43 8.27Q3.25 8.31 3.09 8.31L3.09 8.31L3.09 8.31Q2.97 8.31 2.91 8.30L2.91 8.30L2.91 8.30Q2.80 8.35 2.71 8.36L2.71 8.36L2.71 8.36Q2.61 8.37 2.52 8.37L2.52 8.37L2.35 8.37L2.19 8.37L2.19 8.37Q2.02 8.37 1.93 8.41L1.93 8.41L1.93 8.41Q1.74 8.41 1.68 8.41L1.68 8.41L1.68 8.41Q1.63 8.41 1.56 8.41L1.56 8.41L1.39 8.41L1.23 8.41L1.23 8.41Q1.12 8.41 0.98 8.39L0.98 8.39L0.98 8.39Q0.85 8.37 0.70 8.29L0.70 8.29L0.60 8.18L0.60 8.18Q0.52 8.03 0.45 8.01L0.45 8.01L0.30 7.97ZM9.11 12.76L9.11 12.76L9.11 12.76Q8.70 12.52 8.48 12.10L8.48 12.10L8.48 12.10Q8.26 11.68 8.23 11.29L8.23 11.29L8.23 11.29Q8.27 10.96 8.40 10.78L8.40 10.78L8.40 10.78Q8.53 10.60 8.71 10.48L8.71 10.48L8.71 10.48Q8.89 10.36 9.08 10.30L9.08 10.30L9.08 10.30Q9.27 10.24 9.45 10.20L9.45 10.20L9.65 10.27L9.65 10.27Q9.72 10.34 9.80 10.39L9.80 10.39L9.80 10.39Q9.87 10.45 9.94 10.50L9.94 10.50L9.94 10.50Q10.08 10.45 10.11 10.34L10.11 10.34L10.11 10.34Q10.14 10.23 10.19 10.12L10.19 10.12L10.19 10.12Q10.23 9.97 10.28 9.82L10.28 9.82L10.28 9.82Q10.34 9.67 10.42 9.52L10.42 9.52L10.42 9.52Q10.40 9.39 10.43 9.30L10.43 9.30L10.43 9.30Q10.46 9.20 10.49 9.13L10.49 9.13L10.49 9.13Q10.40 9.06 10.37 9.06L10.37 9.06L10.37 9.06Q10.34 9.05 10.25 9.02L10.25 9.02L10.25 9.02Q10.21 9.02 10.17 9.02L10.17 9.02L10.17 9.02Q10.13 9.01 10.08 9.00L10.08 9.00L10.08 9.00Q9.87 8.85 9.81 8.74L9.81 8.74L9.81 8.74Q9.75 8.64 9.68 8.53L9.68 8.53L9.68 8.53Q9.61 8.42 9.56 8.34L9.56 8.34L9.56 8.34Q9.50 8.26 9.43 8.19L9.43 8.19L9.27 8.08L9.35 7.92L9.35 7.92Q9.38 7.89 9.38 7.84L9.38 7.84L9.38 7.84Q9.38 7.79 9.32 7.70L9.32 7.70L9.32 7.70Q9.28 7.52 9.31 7.44L9.31 7.44L9.34 7.27L9.34 7.27Q9.47 7.10 9.49 7.07L9.49 7.07L9.63 6.93L9.63 6.93Q9.94 6.85 10.27 6.75L10.27 6.75L10.27 6.75Q10.60 6.64 10.91 6.54L10.91 6.54L10.91 6.54Q11.22 6.43 11.55 6.32L11.55 6.32L11.55 6.32Q11.88 6.21 12.21 6.13L12.21 6.13L12.21 6.13Q12.32 6.03 12.45 6.01L12.45 6.01L12.45 6.01Q12.58 5.99 12.69 5.97L12.69 5.97L12.69 5.97Q12.78 5.97 12.87 5.96L12.87 5.96L12.87 5.96Q12.95 5.95 12.99 5.89L12.99 5.89L12.99 5.89Q13.22 5.81 13.44 5.76L13.44 5.76L13.44 5.76Q13.85 5.65 14.52 5.50L14.52 5.50L14.52 5.50Q15.19 5.35 16.02 5.28L16.02 5.28L16.31 5.26L16.31 5.26Q16.39 5.28 16.47 5.27L16.47 5.27L16.47 5.27Q16.56 5.26 16.64 5.26L16.64 5.26L16.64 5.26Q17.35 5.26 17.58 5.70L17.58 5.70L17.58 5.70Q17.72 5.77 17.83 5.87L17.83 5.87L17.83 5.87Q17.94 5.97 18.03 6.07L18.03 6.07L18.03 6.07Q18.10 6.14 18.16 6.19L18.16 6.19L18.16 6.19Q18.21 6.23 18.25 6.26L18.25 6.26L18.36 6.37L18.36 6.37Q18.51 6.70 18.42 7.01L18.42 7.01L18.42 7.01Q18.33 7.18 18.24 7.21L18.24 7.21L18.24 7.21Q18.14 7.23 18.05 7.26L18.05 7.26L17.87 7.36L17.87 7.36Q17.69 7.34 17.60 7.34L17.60 7.34L17.60 7.34Q17.51 7.34 17.40 7.34L17.40 7.34L17.40 7.34Q16.99 7.34 16.45 7.39L16.45 7.39L16.45 7.39Q15.91 7.44 15.35 7.53L15.35 7.53L15.35 7.53Q14.79 7.62 14.26 7.75L14.26 7.75L14.26 7.75Q13.73 7.88 13.33 8.03L13.33 8.03L13.33 8.03Q13.22 8.11 13.04 8.18L13.04 8.18L13.04 8.18Q13.00 8.19 12.92 8.24L12.92 8.24L12.92 8.24Q12.93 8.35 12.92 8.46L12.92 8.46L12.92 8.46Q12.91 8.56 12.88 8.65L12.88 8.65L12.88 8.65Q12.87 8.72 12.86 8.80L12.86 8.80L12.86 8.80Q12.85 8.87 12.84 8.96L12.84 8.96L12.84 8.96Q12.55 9.30 12.56 9.76L12.56 9.76L12.50 9.90L12.50 9.90Q12.44 9.95 12.41 10.06L12.41 10.06L12.41 10.06Q12.37 10.16 12.40 10.27L12.40 10.27L12.46 10.43L12.46 10.43Q12.73 10.40 13.00 10.37L13.00 10.37L13.00 10.37Q13.26 10.34 13.56 10.29L13.56 10.29L13.56 10.29Q13.95 10.23 14.33 10.18L14.33 10.18L14.33 10.18Q14.72 10.13 15.15 10.13L15.15 10.13L15.68 10.13L15.56 10.25L15.71 10.27L15.63 10.49L15.63 10.49Q15.72 10.53 15.77 10.55L15.77 10.55L15.77 10.55Q15.82 10.57 15.86 10.60L15.86 10.60L15.96 10.73L15.96 10.73Q16.02 10.77 16.08 10.86L16.08 10.86L16.08 10.86Q16.13 10.95 16.15 11.10L16.15 11.10L16.11 11.24L15.46 12.06L15.38 12.17L15.24 12.13L15.24 12.13Q14.98 12.11 14.75 12.18L14.75 12.18L14.75 12.18Q14.64 12.21 14.52 12.24L14.52 12.24L14.52 12.24Q14.40 12.28 14.27 12.28L14.27 12.28L14.27 12.28Q13.95 12.33 13.73 12.37L13.73 12.37L13.73 12.37Q13.51 12.40 13.29 12.43L13.29 12.43L13.29 12.43Q12.99 12.48 12.71 12.53L12.71 12.53L12.71 12.53Q12.43 12.58 12.18 12.67L12.18 12.67L12.18 12.67Q12.03 12.69 12.00 12.68L12.00 12.68L12.00 12.68Q11.98 12.67 11.95 12.67L11.95 12.67L11.95 12.67Q11.81 12.67 11.68 12.71L11.68 12.71L11.68 12.71Q11.54 12.76 11.42 12.80L11.42 12.80L11.42 12.80Q11.33 12.87 11.31 12.94L11.31 12.94L11.31 12.94Q11.28 13.02 11.25 13.10L11.25 13.10L11.25 13.10Q11.22 13.19 11.18 13.28L11.18 13.28L11.18 13.28Q11.13 13.37 11.06 13.47L11.06 13.47L11.07 13.71L11.07 13.71Q10.95 13.74 10.95 13.75L10.95 13.75L10.95 13.75Q10.95 13.75 10.94 13.75L10.94 13.75L10.94 13.75Q10.94 13.86 10.90 13.96L10.90 13.96L10.90 13.96Q10.87 14.05 10.84 14.14L10.84 14.14L10.84 14.14Q10.81 14.19 10.80 14.23L10.80 14.23L10.80 14.23Q10.79 14.27 10.79 14.31L10.79 14.31L10.79 14.31Q10.92 14.56 10.86 14.88L10.86 14.88L10.86 14.88Q10.80 15.13 10.65 15.33L10.65 15.33L10.65 15.33Q10.50 15.53 10.29 15.64L10.29 15.64L10.29 15.64Q10.08 15.67 9.97 15.63L9.97 15.63L9.97 15.63Q9.87 15.59 9.76 15.54L9.76 15.54L9.76 15.54Q9.69 15.52 9.63 15.50L9.63 15.50L9.63 15.50Q9.56 15.48 9.49 15.46L9.49 15.46L9.32 15.33L9.32 15.33Q9.28 15.24 9.23 15.17L9.23 15.17L9.23 15.17Q9.17 15.09 9.12 15.01L9.12 15.01L9.12 15.01Q9.05 14.92 8.98 14.82L8.98 14.82L8.98 14.82Q8.91 14.72 8.86 14.60L8.86 14.60L8.86 14.60Q8.76 14.12 8.83 13.80L8.83 13.80L8.83 13.80Q8.89 13.48 9.00 13.17L9.00 13.17L9.00 13.17Q9.02 13.06 9.05 12.96L9.05 12.96L9.05 12.96Q9.08 12.87 9.11 12.76Z"></path>
    </g><!----><!---->
</svg>